<svg width="1589" height="234" viewBox="0 0 1589 234" fill="none" xmlns="http://www.w3.org/2000/svg">
<path d="M2.63403e-07 106.057L4.26952e-06 14.4104C4.59311e-06 7.00785 6.0039 0.999993 13.4016 0.999993L88.6111 0.999997C96.0088 0.999997 102.013 7.00786 102.013 14.4104L102.013 43.9133C102.013 51.3158 96.0088 57.3237 88.6111 57.3237L69.6881 57.3237C62.2905 57.3237 56.2866 63.3316 56.2866 70.7341L56.2866 79.8264C56.2866 83.7958 58.0287 87.5508 61.0574 90.0987L160.229 173.511C163.258 176.059 165 179.814 165 183.784L165 219.59C165 226.992 158.996 233 151.598 233L122.115 233C114.717 233 108.713 226.992 108.713 219.59L108.713 210.015C108.713 206.045 106.971 202.29 103.942 199.742L4.77087 116.329C1.74212 113.781 8.98865e-08 110.027 2.63403e-07 106.057Z" fill="white"/>
<path d="M645 148.251L645 122.389C645 114.984 651.018 108.975 658.434 108.975L687.989 108.975C695.405 108.975 701.423 114.984 701.423 122.389L701.423 148.251C701.423 163.918 714.159 176.635 729.85 176.635L736.245 176.635C751.21 176.635 764.295 165.447 765.477 150.558C766.31 140.068 761.393 130.169 752.715 124.481L694.008 86.1175C690.192 83.6225 687.909 79.3837 687.936 74.8498L688.177 13.3604C688.204 5.9559 694.25 -0.0267436 701.665 8.46162e-05L731.22 0.10742C738.636 0.134248 744.628 6.17049 744.601 13.575L744.466 44.4807C744.466 49.0146 746.723 53.2802 750.539 55.7484L783.613 77.3716C808.816 93.8171 823.352 122.147 821.901 152.409C819.724 197.829 781.061 233 735.546 233L729.85 233C682.992 233 645 195.065 645 148.278L645 148.251Z" fill="white"/>
<path d="M800 43.9034L800 14.4073C800 7.00647 806.002 0.999996 813.396 0.999996L884.639 0.999999C892.007 1 898.009 6.95283 898.035 14.3537L899 219.405C899.027 226.806 893.079 232.839 885.657 232.866L856.185 233C848.79 233.027 842.761 227.074 842.735 219.646L842.038 70.6375C842.011 63.2635 836.01 57.2838 828.642 57.2838L813.396 57.2838C806.002 57.2838 800 51.2774 800 43.8765L800 43.9034Z" fill="white"/>
<path d="M430 130.552L430 13.4479C430 6.02082 424.03 -2.60929e-07 416.667 -5.82802e-07L387.333 -1.86497e-06C379.97 -2.18684e-06 374 6.02082 374 13.4479L374 130.552C374 137.979 379.97 144 387.333 144L416.667 144C424.03 144 430 137.979 430 130.552Z" fill="white"/>
<path d="M180 218.543L180 91.8421C180 84.4286 185.998 78.4118 193.387 78.4118L222.84 78.4118C230.23 78.4118 236.227 84.4286 236.227 91.8421L236.227 162.136C236.227 169.549 242.225 175.566 249.615 175.566L270.392 175.566C287.689 175.566 301.746 157.811 301.746 135.974C301.746 122.329 296.203 109.812 286.912 102.452L233.764 60.3079C231.408 58.4277 228.463 57.407 225.464 57.407L200.322 57.407C192.932 57.407 186.935 51.3902 186.935 43.9767L186.935 14.4302C186.935 7.01674 192.932 0.999993 200.322 0.999993L245.01 0.999995C248.035 0.999995 250.954 2.0207 253.31 3.90093L321.8 58.2128C344.452 76.1825 358 105.272 358 136.001C358 188.943 318.721 232 270.419 232L193.414 232C186.024 232 180.027 225.983 180.027 218.57L180 218.543Z" fill="white"/>
<path d="M1459 168.547L1459 92.4617C1459 87.9514 1461.25 83.7364 1465.03 81.2664L1526.72 40.4856C1530.47 37.9888 1532.75 33.8006 1532.75 29.2903L1532.75 13.4236C1532.75 6.01377 1538.75 -2.19659e-06 1546.14 -1.87342e-06L1575.61 -5.85444e-07C1583 -2.62279e-07 1589 6.01377 1589 13.4236L1589 59.6276C1589 64.1379 1586.75 68.3529 1582.97 70.8229L1521.28 111.604C1517.53 114.1 1515.25 118.289 1515.25 122.799L1515.25 168.547C1515.25 173.54 1519.16 177.621 1523.99 177.621C1528.81 177.621 1532.72 173.54 1532.72 168.547L1532.72 129.833C1532.72 122.423 1538.72 116.409 1546.11 116.409L1575.61 116.409C1583 116.409 1589 122.423 1589 129.833L1589 168.547C1589 204.629 1559.86 234 1524.01 234C1488.17 234 1459.03 204.629 1459.03 168.547L1459 168.547Z" fill="white"/>
<path d="M1466 43.6667L1466 14.3333C1466 6.96954 1459.96 1 1452.51 0.999999L1387.49 0.999997C1380.04 0.999996 1374 6.96953 1374 14.3333L1374 43.6667C1374 51.0305 1380.04 57 1387.49 57L1452.51 57C1459.96 57 1466 51.0305 1466 43.6667Z" fill="white"/>
<path d="M428 218.641L428 189.192C428 181.803 434.037 175.806 441.475 175.806L461.93 175.806C469.368 175.806 475.405 169.809 475.405 162.42L475.405 123.386C475.405 115.997 481.442 110 488.88 110L518.525 110C525.963 110 532 115.997 532 123.386L532 205.683C532 210.449 529.44 214.839 525.316 217.249L502.948 230.18C500.9 231.384 498.555 232 496.157 232L441.475 232C434.037 232 428 226.003 428 218.614L428 218.641Z" fill="white"/>
<path d="M440.027 43.9133L440.027 14.4104C440.027 7.00785 446.023 0.999993 453.412 0.999993L459.301 0.999993C491.212 0.999995 521.81 11.782 547.778 32.139C587.987 63.6802 612 115.069 612 169.622L612 219.59C612 226.992 606.003 233 598.615 233L569.167 233C561.779 233 555.782 226.992 555.782 219.59L555.782 169.622C555.782 132.261 539.827 97.4476 513.11 76.5006C497.128 63.9484 478.496 57.3237 459.275 57.3237L453.385 57.3237C445.997 57.3237 440 51.3158 440 43.9133L440.027 43.9133Z" fill="white"/>
<path d="M658 58.6242L658 43.3758C658 35.9885 652.03 30 644.667 30L615.333 30C607.97 30 602 35.9885 602 43.3758L602 58.6242C602 66.0114 607.97 72 615.333 72L644.667 72C652.03 72 658 66.0115 658 58.6242Z" fill="white"/>
<path d="M927.427 130.223C921.649 130.142 917 125.457 917 119.702L917 64.1523C917 29.3235 944.921 0.999992 979.239 0.999994L1114.44 1C1120.27 1 1125 5.71164 1125 11.5209L1125 46.6977C1125 52.507 1120.27 57.2187 1114.44 57.2187L979.239 57.2187C976.095 57.2187 973.434 60.4044 973.434 64.1523C973.434 69.908 978.083 74.5929 983.861 74.6732L991.439 74.7803C997.271 74.8606 1001.92 79.6258 1001.87 85.4351L1001.44 120.612C1001.36 126.421 996.572 131.079 990.741 130.999L927.427 130.223Z" fill="white"/>
<path d="M973.027 181.728C973.027 164.309 981.956 148.393 996.919 139.16L1097.61 76.918C1103.64 73.1872 1111.53 75.066 1115.25 81.105L1130.08 105.127C1133.81 111.166 1131.93 119.057 1125.9 122.788L1074.84 154.352C1063.85 161.142 1068.68 178.105 1081.57 178.105L1111.96 178.105C1119.04 178.105 1124.77 183.849 1124.77 190.935L1124.77 219.17C1124.77 226.256 1119.04 232 1111.96 232L1024.03 232C995.9 232 973 209.454 973 181.728L973.027 181.728Z" fill="white"/>
<path d="M1222 220.552L1222 202.558C1222 165.172 1242.71 129.937 1276.68 114.66C1291.25 108.097 1300.74 93.3579 1300.74 77.3813L1300.74 13.4483C1300.74 6.02482 1306.74 -2.19687e-06 1314.13 -1.87366e-06L1343.6 -5.8552e-07C1351 -2.62313e-07 1357 6.02483 1357 13.4483L1357 77.3813C1357 114.821 1335.25 149.356 1301.54 165.36C1287.4 172.084 1278.26 186.581 1278.26 202.289L1278.26 220.552C1278.26 227.975 1272.26 234 1264.87 234L1235.4 234C1228 234 1222 227.975 1222 220.552Z" fill="white"/>
<path d="M1157.37 232.973C1149.99 232.973 1144 226.966 1144 219.564L1144 67.1598C1144 30.8755 1173.23 1.18843 1209.15 1.00071C1226.62 0.920255 1243.09 7.67828 1255.5 20.0948C1268.07 32.6187 1275 49.3529 1275 67.1866L1275 97.8392C1275 105.241 1269.01 111.248 1261.63 111.248L1232.21 111.248C1224.83 111.248 1218.83 105.241 1218.83 97.8392L1218.83 67.1866C1218.83 63.4858 1216.99 61.1258 1215.92 60.0263C1214.69 58.7927 1212.55 57.3177 1209.47 57.3445C1204.36 57.3445 1200.19 61.7962 1200.19 67.1866L1200.19 219.591C1200.19 226.993 1194.2 233 1186.82 233L1157.4 233L1157.37 232.973Z" fill="white"/>
<path d="M1364 220.579L1364 200.421C1364 193.009 1358.03 187 1350.67 187L1321.33 187C1313.97 187 1308 193.009 1308 200.421L1308 220.579C1308 227.991 1313.97 234 1321.33 234L1350.67 234C1358.03 234 1364 227.991 1364 220.579Z" fill="white"/>
</svg>
