<svg width="283" height="114" viewBox="0 0 283 114" fill="none" xmlns="http://www.w3.org/2000/svg">
<path d="M13.7977 30.2324H8.20231V53.9366H0V0H8.20231V21.6127H13.7977V0H22V54H13.7977V30.2324Z" fill="black"/>
<path d="M36.5029 55H34.9314C28.4571 55 25 51.4557 25 44.8101V33.9873H33.0457V43.4177C33.0457 45.8861 33.8629 47.2152 35.6857 47.2152C37.6343 47.2152 38.3257 45.8861 38.3257 42.5949V41.3924C38.3257 37.5316 37.9486 36.2025 34.9943 32.3418L29.9029 25.5696C26.4457 21.076 25.44 17.5949 25.44 12.2152V10.5063C25.44 3.35443 29.0229 0 35.4343 0H36.9429C43.6057 0 46.2457 2.97468 46.2457 9.36709V18.2278H38.3886V10.443C38.3886 8.60759 38.0114 7.27848 36.0629 7.27848C34.1143 7.27848 33.6743 8.48101 33.6743 11.0759V12.0886C33.6743 15.1266 34.24 16.7721 37.0057 20.3797L42.16 27.0886C45.8057 31.8987 47 34.6203 47 40.6962V42.4051C47 50.3165 43.6057 55 36.5029 55Z" fill="black"/>
<path d="M69.5349 0V7.86839H58.5714V22.0188H67.1429V30.2045H58.5714V45.8143H70V54H50V0H69.5349Z" fill="black"/>
<path d="M91.8043 43.8592H85.6739L84.5652 54H77L83.7826 0H93.7609L101 54H92.8478L91.8043 43.8592ZM90.8913 35.8099L88.6739 15.8451L86.5217 35.8099H90.8913Z" fill="black"/>
<path d="M110.062 53.9367H102V0H115.125C120.5 0 123.187 2.34232 123.187 8.35639V17.9156C123.187 22.4103 121.125 24.1196 119.688 24.8159C121.5 25.6389 123.187 27.095 123.187 30.7034V49.6319C123.187 51.7843 123.625 52.7972 124 53.6202V54H116C115.625 53.4302 115.188 52.4807 115.188 49.5686V33.2356C115.188 30.83 114.75 29.8171 112.188 29.8171H110.125V53.9367H110.062ZM110.062 22.1571H112.188C114.438 22.1571 115.125 20.7011 115.125 18.2954V10.762C115.125 8.4197 114.625 7.28019 112.188 7.28019H110.062V22.1571Z" fill="black"/>
<path d="M141.069 7.80494V54H132.931V7.80494H126V0H148V7.86839H141.069V7.80494Z" fill="black"/>
<path d="M169.804 43.8592H163.674L162.565 54H155L161.783 0H171.761L179 54H170.848L169.804 43.8592ZM168.891 35.8099L166.674 15.8451L164.522 35.8099H168.891Z" fill="black"/>
<path d="M188.439 0L195.497 28.9648V0H203V54H196.324L188.439 22.9437V54H181V0H188.439Z" fill="black"/>
<path d="M206 0H218.727C225.826 0 228 3.99296 228 10.3944V43.2887C228 49.8803 225.506 54 218.727 54H206.064V0H206ZM214.314 46.1408H216.297C218.791 46.1408 219.494 44.8099 219.494 41.9577V11.5352C219.494 8.42958 218.663 7.35211 216.616 7.35211H214.25V46.1408H214.314Z" fill="black"/>
<path d="M0 59H12.6997C19.8192 59 22 62.993 22 69.3944V102.289C22 108.88 19.4985 113 12.6997 113H0V59ZM8.27405 105.204H10.2624C12.7638 105.204 13.4694 103.873 13.4694 101.021V70.5986C13.4694 67.493 12.6356 66.4155 10.5831 66.4155H8.20991V105.204H8.27405Z" fill="black"/>
<path d="M44.5364 59V66.8684H33.6093V81.0188H42.1523V89.2045H33.6093V104.814H45V113H25V59H44.5364Z" fill="black"/>
<path d="M57.5354 114H55.9595C49.4669 114 46 110.448 46 103.787V92.9389H54.0684V102.391C54.0684 104.865 54.8879 106.197 56.7159 106.197C58.67 106.197 59.3634 104.865 59.3634 101.566V100.361C59.3634 96.4913 58.9852 95.1592 56.0225 91.2895L50.8537 84.6286C47.3868 80.1246 46.3782 76.6355 46.3782 71.2434V69.5306C46.3782 62.3622 49.9712 59 56.4007 59H57.9136C64.6583 59 67.2427 61.9815 67.2427 68.3887V77.2699H59.3634V69.4671C59.3634 67.6274 58.9852 66.2953 57.0311 66.2953C55.077 66.2953 54.6358 67.5006 54.6358 70.1015V71.1165C54.6358 74.1615 55.2031 75.8108 57.9766 79.4268L63.1455 86.1511C66.8015 90.9723 67.9991 93.7001 67.9991 99.7901V101.503C68.0622 109.306 64.6583 114 57.5354 114Z" fill="black"/>
<path d="M79 113H71V59H79V113Z" fill="black"/>
<path d="M88.9073 114C84.0609 114 81 109.711 81 104.161V70.5424C81 64.5505 83.3594 59 91.1391 59H92.7333C101.597 59 102.617 64.6766 102.617 71.047V76.5344H94.5826V70.4794C94.5826 68.0826 94.0087 66.8211 91.9681 66.8211C90.2464 66.8211 89.4174 68.1456 89.4174 70.4794V101.89C89.4174 104.413 90.4377 105.737 92.0957 105.737C94.2 105.737 95.1565 104.287 95.1565 102.268V88.8337H91.458V80.5711H103V113.243H98.3449C98.2812 112.928 97.6435 110.279 96.942 107.945C96.3681 109.774 93.5623 113.937 89.4174 113.937H88.9073V114Z" fill="black"/>
<path d="M113.439 59L120.497 87.9648V59H128V113H121.324L113.439 81.9437V113H106V59H113.439Z" fill="black"/>
<path d="M149.535 114H147.959C141.467 114 138 110.448 138 103.787V92.9389H146.068V102.391C146.068 104.865 146.888 106.197 148.716 106.197C150.67 106.197 151.363 104.865 151.363 101.566V100.361C151.363 96.4913 150.985 95.1592 148.023 91.2895L142.854 84.6286C139.387 80.1246 138.378 76.6355 138.378 71.2434V69.5306C138.378 62.3622 141.971 59 148.401 59H149.914C156.595 59 159.243 61.9815 159.243 68.3887V77.2699H151.363V69.4671C151.363 67.6274 150.985 66.2953 149.031 66.2953C147.077 66.2953 146.636 67.5006 146.636 70.1015V71.1165C146.636 74.1615 147.203 75.8108 149.977 79.4268L155.145 86.1511C158.801 90.9723 159.999 93.7001 159.999 99.7901V101.503C160.062 109.306 156.658 114 149.535 114Z" fill="black"/>
<path d="M178.854 102.444V89.9415H187V102.381C187 108.191 185.076 114 177.058 114H175.198C166.796 114 165 108.064 165 102.634V69.7979C165 64.3042 167.437 59 174.942 59H176.866C185.974 59 187 64.9357 187 70.1768V79.775H178.854V70.3031C178.854 67.9667 178.149 66.7669 176.032 66.7669C173.98 66.7669 173.466 67.9036 173.466 70.3031V102.255C173.466 104.654 174.3 105.917 176.096 105.917C178.149 106.107 178.854 104.654 178.854 102.444Z" fill="black"/>
<path d="M202.798 89.2958H197.202V113H189V59H197.202V80.6127H202.798V59H211V113H202.798V89.2958Z" fill="black"/>
<path d="M235 101.356C235 108.879 232.514 114 224.746 114H223.379C215.672 114 213 108.879 213 101.356V71.3908C213 63.931 215.797 59 223.316 59H224.684C232.514 59 235 63.931 235 71.3276V101.356V101.356ZM226.797 70.9483C226.797 68.1035 225.864 66.8391 224 66.8391C221.949 66.8391 221.141 68.2299 221.141 70.9483V101.925C221.141 104.264 221.763 106.034 224.062 106.034C226.175 106.034 226.797 104.201 226.797 101.925V70.9483V70.9483Z" fill="black"/>
<path d="M261 101.356C261 108.879 258.514 114 250.746 114H249.379C241.672 114 239 108.879 239 101.356V71.3908C239 63.931 241.797 59 249.316 59H250.684C258.514 59 261 63.931 261 71.3276V101.356V101.356ZM252.797 70.9483C252.797 68.1035 251.864 66.8391 250 66.8391C247.949 66.8391 247.141 68.2299 247.141 70.9483V101.925C247.141 104.264 247.763 106.034 250.062 106.034C252.175 106.034 252.797 104.201 252.797 101.925V70.9483V70.9483Z" fill="black"/>
<path d="M273.091 59V104.634H283V113H265V59H273.091Z" fill="black"/>
</svg>
