<svg width="229" height="225" viewBox="0 0 229 225" fill="none" xmlns="http://www.w3.org/2000/svg">
<path d="M225.816 104.006C220.366 114.797 207.926 120.16 196.071 117.781L151.582 108.849C147.171 107.962 142.666 110.662 141.759 115.062C141.731 115.194 141.702 115.326 141.683 115.467C140.937 119.735 143.724 123.842 147.918 124.918L192.973 136.464C200.605 138.428 207.274 143.431 210.703 150.531C215.718 160.925 212.913 171.999 205.404 181.393C200.653 187.378 194.324 191.268 187.495 192.693C175.65 195.148 163.701 188.776 158.166 178.022L137.395 137.691C135.336 133.698 130.424 131.857 126.419 133.887C126.297 133.943 126.183 134.009 126.07 134.075C122.254 136.143 120.78 140.892 122.556 144.847L141.617 187.256C144.857 194.449 145.103 202.767 141.683 209.885C136.687 220.28 126.268 225 114.234 225C106.593 225 99.6031 222.489 94.238 218.052C84.9152 210.32 82.4499 197.027 87.4088 185.981L106.007 144.611C107.849 140.505 106.225 135.52 102.125 133.651C101.993 133.594 101.861 133.528 101.728 133.471C97.7329 131.8 93.114 133.594 91.1304 137.446L69.8022 178.768C66.1939 185.764 59.8181 191.145 52.1388 192.882C40.8891 195.46 30.6972 190.258 23.2068 180.855C18.4368 174.869 16.0659 167.836 16.2076 160.868C16.4343 148.784 25.3132 138.569 37.0352 135.576L81.0141 124.361C85.3875 123.247 88.2873 118.847 87.1727 114.476C87.1349 114.344 87.1066 114.212 87.0688 114.08C85.8786 109.926 81.5998 107.443 77.3587 108.292L31.7457 117.403C24.0097 118.951 15.8392 117.318 9.68068 112.409C0.641202 105.205 -1.6352 94.0085 1.06626 82.283C2.77592 74.8342 6.78087 68.6032 12.2971 64.3548C21.9128 57.0099 35.4484 57.5858 45.0924 64.8741L81.288 92.2242C84.8963 94.9526 90.1481 94.4522 92.8779 90.8458C92.9534 90.7514 93.0195 90.6476 93.0951 90.5531C95.6171 87.0317 94.8898 82.1319 91.5743 79.3374L56.0021 49.3911C49.9758 44.312 46.1408 36.9104 46.1408 29.0273C46.1408 17.4811 53.4706 8.72949 64.3237 3.50871C71.2001 0.204417 78.6055 -0.560291 85.3591 1.12018C97.1001 4.04683 105.091 14.9604 105.403 27.0541L106.565 72.389C106.678 76.8828 110.305 80.678 114.801 80.5931C114.933 80.5931 115.075 80.5931 115.207 80.5742C119.543 80.3571 122.934 76.7318 123.047 72.3984L124.294 25.9307C124.521 18.0665 127.921 10.4572 134.061 5.52904C143.081 -1.67431 154.53 -1.40052 165.364 3.82025C172.259 7.12454 177.454 12.4397 180.363 18.7745C185.398 29.7637 181.846 42.8109 172.58 50.5996L137.839 79.7812C134.401 82.6701 133.692 87.8719 136.564 91.3273C136.649 91.4311 136.734 91.5256 136.819 91.6294C139.69 94.9054 144.659 95.3113 148.135 92.6868L185.256 64.6758C191.547 59.9271 199.604 57.8312 207.302 59.5778C218.552 62.1363 225.466 71.2372 228.149 82.9722C229.858 90.421 228.952 97.7848 225.797 103.997L225.816 104.006Z" fill="url(#paint0_linear_446_164)"/>
<defs>
<linearGradient id="paint0_linear_446_164" x1="114.5" y1="0" x2="114.5" y2="225" gradientUnits="userSpaceOnUse">
<stop stop-color="#F57B30"/>
<stop offset="1" stop-color="#F2622E"/>
</linearGradient>
</defs>
</svg>
