<svg width="1249" height="332" viewBox="0 0 1249 332" fill="none" xmlns="http://www.w3.org/2000/svg">
<path d="M403 81C403 99.2254 417.775 114 436 114H586.819C605.697 114 621 129.303 621 148.181V297.819C621 316.697 605.697 332 586.819 332H437.181C418.303 332 403 316.697 403 297.819V164.181C403 145.303 387.697 130 368.819 130H361.181C342.303 130 327 145.303 327 164.181V248.819C327 267.697 311.697 283 292.819 283H205.181C186.303 283 171 267.697 171 248.819V161.181C171 142.303 186.303 127 205.181 127H286.819C305.697 127 321 111.697 321 92.8187V82.1813C321 63.3035 336.303 48 355.181 48H370C388.225 48 403 62.7746 403 81ZM66 193C66 207.359 77.6406 219 92 219H104.819C123.697 219 139 234.303 139 253.181V279.819C139 298.697 123.697 314 104.819 314H78.1813C59.3035 314 44 298.697 44 279.819V255C44 242.85 34.1503 233 22 233C9.84974 233 0 223.15 0 211V200C0 181.775 14.7746 167 33 167H40C54.3594 167 66 178.641 66 193ZM1249 189C1249 197.284 1242.28 204 1234 204C1225.72 204 1219 210.716 1219 219V276.819C1219 295.697 1203.7 311 1184.82 311H1140.18C1121.3 311 1106 295.697 1106 276.819V232.181C1106 213.303 1121.3 198 1140.18 198H1163C1177.91 198 1190 185.912 1190 171C1190 156.088 1202.09 144 1217 144H1219.5C1235.79 144 1249 157.208 1249 173.5V189ZM1007 275.819C1007 294.697 991.697 310 972.819 310H950.181C931.303 310 916 294.697 916 275.819V253.181C916 234.303 931.303 219 950.181 219H972.819C991.697 219 1007 234.303 1007 253.181V275.819ZM1047 88.5C1047 105.345 1060.66 119 1077.5 119C1094.34 119 1108 132.655 1108 149.5V158.819C1108 177.697 1092.7 193 1073.82 193H1057.5C1044.52 193 1034 182.479 1034 169.5C1034 156.521 1023.48 146 1010.5 146H935.181C916.303 146 901 130.697 901 111.819V34.1813C901 15.3035 916.303 0 935.181 0H1012.82C1031.7 0 1047 15.3035 1047 34.1813V88.5Z" fill="white"/>
</svg>
