<svg width="438" height="613" viewBox="0 0 438 613" fill="none" xmlns="http://www.w3.org/2000/svg">
<path d="M198.936 30C198.936 13.4315 212.367 0 228.936 0H279.97C296.538 0 309.97 13.4315 309.97 30V81.0342C309.97 97.6027 296.538 111.034 279.97 111.034H228.936C212.367 111.034 198.936 97.6027 198.936 81.0342V30ZM218.598 541.219C218.598 524.65 232.029 511.219 248.598 511.219H290.885C302.064 511.219 311.126 502.157 311.126 490.978C311.126 479.799 302.064 470.737 290.885 470.737H210.43C193.861 470.737 180.43 457.306 180.43 440.737V426.715C180.43 410.146 166.998 396.715 150.43 396.715H129.468C112.899 396.715 99.4678 383.283 99.4678 366.715V256.694C99.4678 240.126 112.899 226.694 129.468 226.694H148.044C162.736 226.694 174.646 214.784 174.646 200.092C174.646 185.4 162.736 173.49 148.044 173.49H92.5283C79.1138 173.49 68.2393 184.365 68.2393 197.779C68.2393 211.194 57.3647 222.068 43.9502 222.068H30C13.4315 222.068 0 208.637 0 192.068V174.068C0 162.89 9.06186 153.828 20.2402 153.828C31.4186 153.828 40.4805 144.766 40.4805 133.588V61.2285C40.4805 44.66 53.9119 31.2285 70.4805 31.2285H152.743C169.312 31.2285 182.743 44.66 182.743 61.2285V96.0693C182.743 112.638 196.175 126.069 212.743 126.069H263.705C274.564 126.069 283.367 134.873 283.367 145.732C283.367 156.591 292.17 165.395 303.03 165.395H304.765C316.582 165.395 326.162 155.815 326.162 143.997V91.2998C326.162 74.7313 339.594 61.2998 356.162 61.2998H407.195C423.764 61.2998 437.195 74.7313 437.195 91.2998V142.334C437.195 158.903 423.764 172.334 407.195 172.334H375.824C359.256 172.334 345.824 185.765 345.824 202.334V203.634C345.824 220.202 332.393 233.634 315.824 233.634H283.946C283.626 233.634 283.367 233.893 283.367 234.212C283.367 234.532 283.108 234.791 282.789 234.791H276.428C272.595 234.791 269.488 237.898 269.488 241.73V274.115C269.488 288.807 281.398 300.717 296.09 300.717C310.782 300.717 322.692 288.807 322.692 274.115V272.38C322.692 256.73 335.379 244.043 351.029 244.043H374.811C391.379 244.043 404.811 257.474 404.811 274.043V298.982C404.811 313.993 392.642 326.162 377.63 326.162C362.619 326.162 350.45 338.331 350.45 353.342V421.582C350.45 433.4 360.03 442.979 371.848 442.979C383.665 442.979 393.245 452.559 393.245 464.377V495.098C393.245 511.666 379.814 525.098 363.245 525.098H350.379C333.81 525.098 320.379 538.529 320.379 555.098V583C320.379 599.569 306.947 613 290.379 613H248.598C232.029 613 218.598 599.569 218.598 583V541.219ZM90.2148 513.46C90.2148 496.891 76.7834 483.46 60.2148 483.46H43.8789C27.3104 483.46 13.8789 470.029 13.8789 453.46V431.342C13.8789 414.773 27.3104 401.342 43.8789 401.342H65.998C82.5666 401.342 95.998 414.773 95.998 431.342V446.521C95.998 463.089 109.43 476.521 125.998 476.521H161.996C178.565 476.521 191.996 489.952 191.996 506.521V548.302C191.996 564.87 178.565 578.302 161.996 578.302H120.215C103.646 578.302 90.2148 564.87 90.2148 548.302V513.46Z" fill="white"/>
</svg>
