<svg width="597" height="1141" viewBox="0 0 597 1141" fill="none" xmlns="http://www.w3.org/2000/svg">
<path d="M334.009 1114.43C333.803 1129.15 321.802 1141 307.059 1141H164.767C75.5517 1141 3 1069.85 3 982.411V637.911C3 623.052 15.069 611 29.9497 611H120.056C134.937 611 147.006 623.052 147.006 637.911V982.411C147.006 990.423 155.167 997.202 164.767 997.202C179.511 997.202 191.511 985.355 191.717 970.633L191.991 951.323C192.197 936.464 204.403 924.618 219.284 924.755L309.39 925.85C324.271 926.056 336.203 938.244 335.997 953.103L334.009 1114.43Z" fill="url(#paint0_linear_410_35)"/>
<path d="M464.6 998.932C420.108 998.932 379.456 976.13 355.874 937.923L196.899 680.812C187.37 665.406 192.169 645.275 207.593 635.758L268.948 597.893C284.373 588.375 304.528 593.168 314.056 608.575L394.675 738.945C412.019 767.018 455.345 754.693 455.345 721.758V644.18C455.345 626.103 470.015 611.45 488.113 611.45H560.232C578.33 611.45 593 626.103 593 644.18V868.698C593 940.525 535.415 999 464.6 999V998.932Z" fill="url(#paint1_linear_410_35)"/>
<path d="M562.69 363H516.782C421.4 363 331.506 310.076 292.53 223.261C275.786 186.015 238.182 161.779 197.422 161.779H34.3103C15.371 161.779 0 146.442 0 127.546V52.233C0 33.3364 15.371 18 34.3103 18H197.422C292.942 18 381.051 73.5944 421.88 159.725C439.035 195.875 476.022 219.221 516.096 219.221H562.69C581.629 219.221 597 234.558 597 253.454V328.767C597 347.664 581.629 363 562.69 363Z" fill="url(#paint2_linear_410_35)"/>
<path d="M596.931 528.7C596.931 547.634 581.551 563 562.6 563H172.392C79.4917 563 3.48245 488.021 3.00182 395.892C2.79583 351.096 20.0987 308.839 51.8894 277.009C83.9547 244.767 126.8 227 172.461 227H250.942C269.892 227 285.273 242.366 285.273 261.3V336.759C285.273 355.692 269.892 371.059 250.942 371.059H172.461C162.985 371.059 156.943 375.792 154.128 378.536C150.969 381.692 147.193 387.18 147.261 395.069C147.261 408.171 158.659 418.873 172.461 418.873H562.669C581.62 418.873 597 434.239 597 453.172V528.632L596.931 528.7Z" fill="url(#paint3_linear_410_35)"/>
<path d="M562.448 0H510.552C491.469 0 476 15.3502 476 34.2857V109.714C476 128.65 491.469 144 510.552 144H562.448C581.531 144 597 128.65 597 109.714V34.2857C597 15.3502 581.531 0 562.448 0Z" fill="url(#paint4_linear_410_35)"/>
<defs>
<linearGradient id="paint0_linear_410_35" x1="298.5" y1="0" x2="298.5" y2="1141" gradientUnits="userSpaceOnUse">
<stop stop-color="#F57B30"/>
<stop offset="1" stop-color="#F2622E"/>
</linearGradient>
<linearGradient id="paint1_linear_410_35" x1="298.5" y1="0" x2="298.5" y2="1141" gradientUnits="userSpaceOnUse">
<stop stop-color="#F57B30"/>
<stop offset="1" stop-color="#F2622E"/>
</linearGradient>
<linearGradient id="paint2_linear_410_35" x1="298.5" y1="0" x2="298.5" y2="1141" gradientUnits="userSpaceOnUse">
<stop stop-color="#F57B30"/>
<stop offset="1" stop-color="#F2622E"/>
</linearGradient>
<linearGradient id="paint3_linear_410_35" x1="298.5" y1="0" x2="298.5" y2="1141" gradientUnits="userSpaceOnUse">
<stop stop-color="#F57B30"/>
<stop offset="1" stop-color="#F2622E"/>
</linearGradient>
<linearGradient id="paint4_linear_410_35" x1="298.5" y1="0" x2="298.5" y2="1141" gradientUnits="userSpaceOnUse">
<stop stop-color="#F57B30"/>
<stop offset="1" stop-color="#F2622E"/>
</linearGradient>
</defs>
</svg>
